<?xml version="1.0" encoding="UTF-8" standalone="no"?>
<!DOCTYPE svg PUBLIC "-//W3C//DTD SVG 1.1//EN" "http://www.w3.org/Graphics/SVG/1.1/DTD/svg11.dtd">
<svg width="100%" height="100%" viewBox="0 0 1334 1334" version="1.1" xmlns="http://www.w3.org/2000/svg" xmlns:xlink="http://www.w3.org/1999/xlink" xml:space="preserve" xmlns:serif="http://www.serif.com/" style="fill-rule:evenodd;clip-rule:evenodd;stroke-linejoin:round;stroke-miterlimit:2;">
    <g id="Layer-1" serif:id="Layer 1" transform="matrix(1.33333,0,0,1.33333,0,0)">
        <path id="path1" d="M489.324,207.595C468.148,213.149 449.173,228.103 436.618,249.132C432.697,255.701 427.316,267.276 424.829,274.495C423.294,278.952 405.203,332.1 388.413,381.484C380.715,404.124 366.221,451.012 361.312,469.15L359.079,477.404L357.037,472.792C355.915,470.256 353.529,464.861 351.734,460.802C343.056,441.174 329.228,415.446 321.246,404.08C315.131,395.373 304.089,384.3 296.357,379.121C280.224,368.316 258.953,367.069 242.996,375.992C231.388,382.484 221.988,393.69 211.452,413.598C205.169,425.47 193.343,444.454 186.248,454.059C176.868,466.761 160.617,481.134 145.457,490.14L138.951,494.006L77.756,494.006C18.245,494.006 16.525,494.055 15.25,495.796C13.442,498.265 13.61,501.235 15.703,503.818L17.466,505.996L139.856,505.996L147.218,510.582C156.903,516.616 170.847,527.891 177.749,535.271C186.591,544.723 199.296,564.201 215.873,593.72C224.699,609.434 234.285,619.6 245.065,624.673C260.978,632.163 278.563,631.208 294.268,622C301.732,617.625 314.697,604.98 321.007,595.921C330.708,581.994 347.622,549.75 355.718,529.748C357.205,526.073 358.654,523.063 358.937,523.061C359.22,523.059 360.225,526.068 361.172,529.745C366.185,549.213 381.195,597.513 391.626,627.741C396.002,640.423 404.691,665.948 410.933,684.463C425.266,726.981 428.072,734.462 433.868,745.626C445.792,768.593 466.323,785.809 489.046,791.898C499.416,794.676 500.263,794.694 509.682,792.364C528.931,787.602 548.131,773.791 560.206,756.02C568.824,743.337 572.493,734.246 590.205,681.696C596.788,662.166 605.136,637.679 608.757,627.28C615.629,607.54 629.991,561.705 636.501,538.738C641.432,521.336 641.101,522.124 642.307,524.903C663.64,574.1 680.121,601.463 696.821,615.411C724.127,638.219 758.281,633.302 778.244,603.691C780.269,600.686 785.369,592.001 789.576,584.392C799.171,567.041 814.55,543.77 821.441,536.176C827.72,529.259 843.635,516.317 853.243,510.316L860.16,505.996L920.111,505.927C953.083,505.889 980.757,505.784 981.61,505.697C985.95,505.245 987.561,498.74 984.173,495.351C982.308,493.486 981.657,493.47 921.609,493.732L860.928,493.996L855.01,490.408C842.583,482.872 827.595,470.53 819.621,461.264C814.172,454.932 799.593,433.094 793.452,422.066C779.692,397.352 777.124,393.445 769.774,386.053C757.835,374.045 746.189,369.335 730.576,370.201C705.438,371.595 685.845,388.758 664.548,428.037C657.454,441.122 649.809,456.949 644.711,469.103C642.797,473.667 641.033,476.78 640.793,476.02C640.552,475.26 637.585,465.092 634.199,453.424C625.048,421.903 617.211,396.973 608.824,372.722C604.701,360.801 596.222,335.899 589.982,317.383C576.606,277.696 572.992,267.808 568.24,257.894C556.292,232.968 536.126,214.944 512.576,208.144C502.991,205.376 498.219,205.264 489.324,207.596M488.008,219.566C479.428,222.251 470.239,227.581 463.141,233.99L459.877,236.937L460.569,270.013C461.464,312.779 461.459,688.847 460.565,730.956L459.88,763.153L465.414,767.675C471.15,772.362 485.41,779.913 490.413,780.912L493.277,781.484L493.87,748.422C494.617,706.713 494.438,270.204 493.66,240.242L493.083,217.978L488.01,219.566M506.375,274.776C506.275,345.658 506.277,648.751 506.379,724.93L506.455,781.537L509.452,780.968C514.42,780.026 528.694,772.493 534.478,767.76L539.904,763.321L539.715,742.569C538.158,571.536 538.151,485.716 539.677,257.433L539.816,236.681L535.182,232.508C529.864,227.718 518.378,221.362 511.298,219.29L506.456,217.873L506.375,274.776M445.916,254.87C440.163,264.547 434.746,278.768 421.401,319.228L415.774,336.291L415.674,499.54L415.574,662.789L424.955,690.92C435.157,721.512 438.38,730.111 443.198,739.591C449.575,752.136 448.977,764.589 449.666,605.09C450.009,525.732 449.956,413.372 449.549,355.402L448.81,250.001L445.915,254.87M551.156,266.821C550.233,287.592 550.232,713.504 551.153,733.105C551.54,741.343 552.17,747.889 552.553,747.652C554.004,746.756 561.86,729.697 565.513,719.512C567.605,713.678 572.741,698.529 576.924,685.847L584.531,662.789L584.356,498.618L584.182,334.446L575.382,308.622C563.142,272.696 559.368,263.185 553.575,253.659L551.864,250.846L551.156,266.821M596.222,499.321C596.211,570.725 596.325,629.026 596.472,628.879C597.094,628.257 613.951,576.273 617.627,563.641C618.291,561.358 621.122,551.712 623.917,542.205C631.353,516.919 634.103,503.811 633.426,496.888C632.274,485.102 619.229,439.178 603.428,391.283L596.239,369.494L596.224,499.321M395.981,393.704C386.87,421.354 374.708,461.66 370.17,479.249C365.714,496.513 365.721,502.442 370.219,520.292C374.614,537.723 387.523,580.549 396.63,607.911L403.843,629.586L403.893,500.231C403.919,429.086 403.843,370.877 403.72,370.877C403.6,370.877 400.115,381.15 395.978,393.704M265.419,412.048C264.631,452.289 264.63,548.163 265.417,587.583L266.029,618.283L272.375,617.829C277.239,617.481 280.271,616.594 285.366,614.028C297.22,608.058 295.87,616.306 296.191,547.915C296.344,515.22 296.4,466.856 296.316,440.438L296.163,392.403L291.989,389.405C286.326,385.338 278.301,382.207 271.595,381.448L266.03,380.819L265.42,412.048M725.043,382.036C719.228,383.175 714.448,385.219 708.74,389.008L703.826,392.269L703.826,606.834L707.436,609.693C713.485,614.485 720.942,617.385 728.447,617.867L735.185,618.299L735.185,381.023L732.187,381.124C730.539,381.18 727.324,381.59 725.043,382.036M746.541,499.614L746.541,616.245L748.471,615.633C751.188,614.772 756.59,611.263 760.539,607.796C764.562,604.264 770.444,596.103 775.688,586.778L779.534,579.939L779.534,419.739L776.116,413.523C768.308,399.325 759.776,389.689 751.13,385.308L746.541,382.983L746.541,499.614M248.151,385.607C240.086,389.871 229.991,401.825 223.422,414.891L220.537,420.629L220.537,579.858L225.265,588.12C230.697,597.614 237.593,606.634 241.962,609.96C244.823,612.137 252.173,616.212 253.242,616.212C253.516,616.212 253.74,563.917 253.74,500.001C253.74,407.625 253.504,383.798 252.588,383.83C251.954,383.853 249.957,384.652 248.151,385.607M307.696,499.738L307.696,595.057L310.19,592.031C320.413,579.622 347.901,524.197 353.001,505.706C354.58,499.981 354.572,499.764 352.527,492.794C346.766,473.172 322.017,423.175 310.775,408.451L307.696,404.419L307.696,499.738M686.557,412.612C672.823,433.397 649.948,481.113 646.639,495.877C645.239,502.125 646.565,506.554 657.121,530.898C667.072,553.845 682.931,583.254 690.296,592.419L692.3,594.912L692.3,499.496C692.3,447.018 692.277,404.08 692.245,404.08C692.218,404.08 689.656,407.92 686.555,412.612M204.418,447.073C191.068,468.147 178.654,481.021 158.003,495.211L151.27,499.837L159.386,505.417C177.566,517.918 189.296,529.92 201.925,548.94L209.006,559.605L209.006,499.827C209.006,466.95 208.974,440.05 208.937,440.05C208.898,440.05 206.865,443.21 204.418,447.073M791.446,499.536C791.446,532.051 791.798,558.082 792.232,557.599C792.663,557.118 795.959,552.365 799.555,547.039C803.151,541.712 808.676,534.315 811.834,530.601C818.363,522.924 832.09,511.119 841.882,504.763C845.527,502.398 848.536,500.19 848.569,499.858C848.603,499.526 846.759,498.158 844.473,496.819C837.567,492.771 822.797,480.479 814.949,472.247C810.883,467.982 803.93,459.115 799.5,452.544L791.446,440.595L791.446,499.536" style="fill:rgb(24,170,24);"/>
        <g transform="matrix(1.36063,0,0,1.36063,-355.583,-242.623)">
            <g transform="matrix(0.75,0,0,0.75,0,0)">
                <path d="M1314.66,886.243L1314.66,972.663C1314.66,996.511 1295.3,1015.87 1271.45,1015.87L953.263,1015.87C929.415,1015.87 910.053,996.511 910.053,972.663L910.053,886.243C910.053,862.395 929.415,843.034 953.263,843.034L1271.45,843.034C1295.3,843.034 1314.66,862.395 1314.66,886.243Z" style="fill:rgb(142,23,23);"/>
            </g>
            <g transform="matrix(7.94052,0,0,7.26456,-7870.88,-6043.96)">
                <g transform="matrix(16,0,0,16,1111.68,933.568)">
                </g>
                <text x="1080.54px" y="933.568px" style="font-family:'ArialMT', 'Arial';font-size:16px;fill:white;">beta</text>
            </g>
        </g>
    </g>
</svg>
